<svg width="38" height="38" viewBox="0 0 38 38" fill="none" xmlns="http://www.w3.org/2000/svg">
<path d="M26.3903 20.8324L19.3989 13.8409L12.4075 20.8324L14.1615 22.5864L18.1586 18.5892V37.2082H20.6392V18.5892L24.6363 22.5864L26.3903 20.8324Z" fill="#44A6E9"/>
<path d="M30.5583 11.2751V11.1625C30.5583 5.00761 25.5507 0 19.3959 0C13.241 0 8.2334 5.00761 8.2334 11.1625V11.3556C6.39633 11.7022 4.70279 12.5844 3.36578 13.8911C2.55214 14.6808 1.90512 15.6256 1.463 16.6697C1.02088 17.7139 0.792626 18.836 0.791748 19.9699C0.791748 22.3822 1.78304 24.68 3.58314 26.4402C5.34201 28.16 7.71698 29.1465 10.0992 29.1465H15.0549V26.6659H10.0992C6.46244 26.6659 3.2723 23.5369 3.2723 19.9699C3.2723 16.6934 6.03501 13.9301 9.56181 13.679L10.7139 13.5969V11.1625C10.7139 8.85988 11.6286 6.6516 13.2568 5.02343C14.885 3.39525 17.0933 2.48055 19.3959 2.48055C21.6985 2.48055 23.9067 3.39525 25.5349 5.02343C27.1631 6.6516 28.0778 8.85988 28.0778 11.1625V13.6461L29.3026 13.6616C32.9049 13.7072 35.5194 16.3602 35.5194 19.9699C35.5194 23.7247 32.7556 26.6659 29.2274 26.6659H23.7368V29.1465H29.2274C30.4092 29.1503 31.5788 28.908 32.6617 28.4348C33.7446 27.9616 34.7171 27.268 35.5171 26.3982C37.1182 24.6767 38 22.3939 38 19.9699C38 15.44 34.8773 11.8905 30.5583 11.2751Z" fill="#44A6E9"/>
</svg>
